<svg width="306" height="290" viewBox="0 0 306 290" fill="none" xmlns="http://www.w3.org/2000/svg">
<path d="M57.3606 114.817C89.0401 114.817 114.721 89.1147 114.721 57.4087C114.721 25.7028 89.0401 0 57.3606 0C25.6812 0 0 25.7028 0 57.4087C0 89.1147 25.6812 114.817 57.3606 114.817Z" fill="#1758ED"/>
<path d="M214.055 178.162L182.254 209.99C171.314 220.939 171.314 238.691 182.254 249.64L214.055 281.468C224.995 292.417 242.732 292.417 253.672 281.468L285.473 249.64C296.413 238.691 296.413 220.939 285.473 209.99L253.672 178.162C242.732 167.213 224.995 167.213 214.055 178.162Z" fill="#1758ED"/>
<path fill-rule="evenodd" clip-rule="evenodd" d="M234.971 114.817C235.542 114.817 236.019 114.817 236.59 114.817C268.32 114.817 293.951 89.0694 293.951 57.4087C293.951 25.7481 268.32 0 236.59 0C204.861 0 179.992 24.9852 179.23 56.0737C177.896 124.735 127.3 174.992 59.1726 175.183C58.6009 175.183 58.0292 175.183 57.3622 175.183C57.0763 175.183 56.6952 175.183 56.4094 175.183C56.2188 175.183 56.1235 175.183 55.9329 175.183C24.8705 175.945 -0.09375 201.407 -0.09375 232.591C-0.09375 263.775 25.6328 290 57.2669 290C88.901 290 114.246 264.633 114.628 233.259C115.962 164.025 165.985 114.245 234.78 114.817H234.971Z" fill="url(#paint0_linear_1070_552)"/>
<defs>
<linearGradient id="paint0_linear_1070_552" x1="147.024" y1="0" x2="147.024" y2="290" gradientUnits="userSpaceOnUse">
<stop stop-color="#1758ED"/>
<stop offset="1" stop-color="#719AF8"/>
</linearGradient>
</defs>
</svg>
